<svg width="21" height="20" viewBox="0 0 21 20" fill="none" xmlns="http://www.w3.org/2000/svg">
<g clip-path="url(#clip0_21_225)">
<path d="M19.8559 2.19766L18.3906 0.732422C17.9028 0.244141 17.2629 0 16.6231 0C15.9832 0 15.3434 0.244141 14.8551 0.732031L1.09025 14.4969L0.594155 18.9586C0.531655 19.5203 0.974233 20 1.52384 20C1.55861 20 1.59337 19.998 1.62892 19.9941L6.08752 19.5016L19.8563 5.73281C20.8324 4.75664 20.8324 3.17383 19.8559 2.19766V2.19766ZM5.51369 18.3078L1.8797 18.7105L2.28439 15.0711L12.5926 4.76289L15.8258 7.99609L5.51369 18.3078V18.3078ZM18.9723 4.84922L16.7094 7.11211L13.4762 3.87891L15.7391 1.61602C15.975 1.38008 16.2891 1.25 16.6231 1.25C16.957 1.25 17.2707 1.38008 17.507 1.61602L18.9723 3.08125C19.4594 3.56875 19.4594 4.36172 18.9723 4.84922Z" fill="#2F80ED"/>
</g>
<defs>
<clipPath id="clip0_21_225">
<rect width="20" height="20" fill="white" transform="translate(0.589478)"/>
</clipPath>
</defs>
</svg>
