<svg width="21" height="20" viewBox="0 0 21 20" fill="none" xmlns="http://www.w3.org/2000/svg">
<g clip-path="url(#clip0_21_223)">
<path d="M0.486781 2.5H5.12964L6.62964 0.75C6.82924 0.517132 7.08806 0.328126 7.38561 0.197949C7.68316 0.067772 8.01126 0 8.34392 0L11.9154 0C12.248 0 12.5761 0.067772 12.8737 0.197949C13.1712 0.328126 13.43 0.517132 13.6296 0.75L15.1296 2.5H19.7725C19.8672 2.5 19.9581 2.53292 20.025 2.59153C20.092 2.65013 20.1296 2.72962 20.1296 2.8125V3.4375C20.1296 3.52038 20.092 3.59987 20.025 3.65847C19.9581 3.71708 19.8672 3.75 19.7725 3.75H18.9287L17.4466 18.293C17.3987 18.7592 17.1531 19.193 16.7582 19.5088C16.3634 19.8247 15.8477 19.9999 15.3127 20H4.9466C4.41157 19.9999 3.89592 19.8247 3.50103 19.5088C3.10615 19.193 2.8606 18.7592 2.81267 18.293L1.33053 3.75H0.486781C0.392061 3.75 0.30122 3.71708 0.234243 3.65847C0.167265 3.59987 0.129638 3.52038 0.129638 3.4375V2.8125C0.129638 2.72962 0.167265 2.65013 0.234243 2.59153C0.30122 2.53292 0.392061 2.5 0.486781 2.5ZM12.4868 1.5C12.42 1.4226 12.3337 1.35976 12.2346 1.31639C12.1354 1.27302 12.0262 1.2503 11.9154 1.25H8.34392C8.2331 1.2503 8.12385 1.27302 8.02472 1.31639C7.92559 1.35976 7.83927 1.4226 7.7725 1.5L6.91535 2.5H13.3439L12.4868 1.5ZM4.23678 18.1797C4.25149 18.3354 4.3327 18.4806 4.46424 18.5863C4.59579 18.692 4.76801 18.7504 4.9466 18.75H15.3127C15.4913 18.7504 15.6635 18.692 15.795 18.5863C15.9266 18.4806 16.0078 18.3354 16.0225 18.1797L17.4957 3.75H2.76357L4.23678 18.1797Z" fill="#2F80ED"/>
</g>
<defs>
<clipPath id="clip0_21_223">
<rect width="20" height="20" fill="white" transform="matrix(-1 0 0 1 20.1296 0)"/>
</clipPath>
</defs>
</svg>
